<svg width="168" height="168" viewBox="0 0 168 168" fill="none" xmlns="http://www.w3.org/2000/svg">
<rect width="168" height="168" fill="#353534"/>
<path d="M44.5517 117.963C43.2611 117.963 42.1426 117.532 41.1962 116.67C40.2498 115.722 39.7766 114.473 39.7766 112.922V47.3795C39.7766 41.3467 40.8091 36.0464 42.874 31.4787C44.9389 26.911 47.9932 23.3775 52.037 20.8782C56.0808 18.2927 61.0279 17 66.8785 17C68.3411 17 69.5457 17.4309 70.4921 18.2927C71.4385 19.1546 71.9117 20.2319 71.9117 21.5246C71.9117 22.8173 71.4385 23.8946 70.4921 24.7565C69.5457 25.6183 68.3411 26.0492 66.8785 26.0492C63.0068 26.0492 59.7804 26.9541 57.1992 28.764C54.7042 30.4876 52.8113 32.9438 51.5208 36.1326C50.3162 39.2352 49.714 42.8118 49.714 46.8624V112.922C49.714 114.473 49.2408 115.722 48.2943 116.67C47.434 117.532 46.1864 117.963 44.5517 117.963ZM31.517 58.4971C30.1404 58.4971 29.0219 58.1092 28.1615 57.3336C27.3872 56.4718 27 55.4376 27 54.231C27 52.9383 27.3872 51.9041 28.1615 51.1284C29.0219 50.2666 30.1404 49.8357 31.517 49.8357H65.2008C66.5774 49.8357 67.6528 50.2666 68.4272 51.1284C69.2875 51.9041 69.7177 52.9383 69.7177 54.231C69.7177 55.4376 69.2875 56.4718 68.4272 57.3336C67.6528 58.1092 66.5774 58.4971 65.2008 58.4971H31.517Z" fill="white"/>
<path d="M108.22 151C102.025 151 96.4755 149.578 91.5713 146.734C86.6672 143.804 82.7525 139.882 79.8272 134.97C76.9879 129.971 75.5683 124.369 75.5683 118.164C75.5683 116.699 76.0415 115.493 76.9879 114.545C77.9343 113.597 79.0958 113.123 80.4725 113.123C81.9351 113.123 83.1396 113.597 84.086 114.545C85.1185 115.493 85.6347 116.699 85.6347 118.164C85.6347 122.473 86.6241 126.352 88.603 129.799C90.5819 133.246 93.2491 135.961 96.6045 137.943C100.046 139.926 103.918 140.917 108.22 140.917C112.522 140.917 116.393 139.926 119.835 137.943C123.276 135.961 125.986 133.246 127.965 129.799C129.944 126.352 130.934 122.473 130.934 118.164C130.934 113.855 129.944 109.977 127.965 106.53C125.986 103.082 123.276 100.368 119.835 98.3854C116.393 96.4032 112.522 95.4121 108.22 95.4121H85.6347C84.1721 95.4121 82.9675 94.938 82.0211 93.99C81.0747 92.9558 80.6015 91.7493 80.6015 90.3704V54.9492C80.6015 53.5703 81.0747 52.4068 82.0211 51.4588C82.9675 50.4246 84.1721 49.9075 85.6347 49.9075H130.934C132.31 49.9075 133.472 50.4246 134.418 51.4588C135.451 52.4068 135.967 53.5703 135.967 54.9492C135.967 56.3281 135.494 57.5347 134.547 58.5689C133.601 59.5169 132.396 59.9909 130.934 59.9909H90.5389V85.3287H108.22C114.5 85.3287 120.093 86.7938 124.997 89.724C129.901 92.568 133.773 96.4893 136.612 101.488C139.537 106.4 141 111.959 141 118.164C141 124.369 139.537 129.971 136.612 134.97C133.773 139.882 129.901 143.804 124.997 146.734C120.093 149.578 114.5 151 108.22 151Z" fill="white"/>
</svg>
