<svg width="168" height="168" viewBox="0 0 168 168" fill="none" xmlns="http://www.w3.org/2000/svg">
<g clip-path="url(#clip0_1186_210)">
<rect width="168" height="168" fill="#353534"/>
<path d="M83.924 101.02C76.38 89.54 72.608 77.7867 72.608 65.76C72.608 53.6787 76.38 41.9253 83.924 30.5H91.632C84.7987 42.308 81.382 54.0613 81.382 65.76C81.382 71.6093 82.2293 77.486 83.924 83.39C85.6733 89.2393 88.2427 95.116 91.632 101.02H83.924ZM97.2932 92V48.376H105.247L105.575 60.02L104.509 59.446C105.001 56.6033 105.931 54.3073 107.297 52.558C108.664 50.8087 110.331 49.524 112.299 48.704C114.267 47.8293 116.399 47.392 118.695 47.392C121.975 47.392 124.681 48.13 126.813 49.606C129 51.0273 130.64 52.9953 131.733 55.51C132.881 57.97 133.455 60.7853 133.455 63.956V92H124.763V66.58C124.763 64.0107 124.49 61.8513 123.943 60.102C123.397 58.3527 122.495 57.0133 121.237 56.084C119.98 55.1547 118.34 54.69 116.317 54.69C113.256 54.69 110.769 55.7013 108.855 57.724C106.942 59.7467 105.985 62.6987 105.985 66.58V92H97.2932ZM145.986 101.02H138.278C141.668 95.116 144.21 89.2393 145.904 83.39C147.654 77.486 148.528 71.6093 148.528 65.76C148.528 54.0613 145.112 42.308 138.278 30.5H145.986C153.53 41.9253 157.302 53.6787 157.302 65.76C157.302 77.7867 153.53 89.54 145.986 101.02Z" fill="white"/>
<path d="M31.72 47.76C32.4667 43.6 33.6667 39.8933 35.32 36.64C37.0267 33.3333 39.4533 30.7467 42.6 28.88C45.7467 26.96 49.8533 26 54.92 26C58.0667 26 60.7067 26.2933 62.84 26.88C65.0267 27.4133 66.44 27.8133 67.08 28.08L63.08 40.24C61.64 39.6533 60.2267 39.28 58.84 39.12C57.5067 38.9067 56.3067 38.8 55.24 38.8C52.8933 38.8 51.08 39.3867 49.8 40.56C48.5733 41.7333 47.5867 43.7333 46.84 46.56C46.1467 49.3333 45.3733 53.1467 44.52 58L29 146H14.44L31.72 47.76ZM14.76 78.8L18.28 67.6H60.84L58.76 78.8H14.76Z" fill="white"/>
</g>
<defs>
<clipPath id="clip0_1186_210">
<rect width="168" height="168" fill="white"/>
</clipPath>
</defs>
</svg>
