<svg width="168" height="168" viewBox="0 0 168 168" fill="none" xmlns="http://www.w3.org/2000/svg">
<path d="M73.088 115.02C65.4893 103.595 61.69 91.8413 61.69 79.76C61.69 67.624 65.4893 55.8707 73.088 44.5H79.238C72.2953 56.308 68.824 68.0613 68.824 79.76C68.824 85.6093 69.6987 91.486 71.448 97.39C73.1973 103.239 75.794 109.116 79.238 115.02H73.088ZM85.422 106V62.54H91.736L91.982 73.61L91.162 72.872C91.7086 70.3027 92.6653 68.198 94.032 66.558C95.3986 64.8633 97.0386 63.606 98.952 62.786C100.92 61.966 103.025 61.556 105.266 61.556C108.601 61.556 111.334 62.294 113.466 63.77C115.653 65.246 117.265 67.2413 118.304 69.756C119.397 72.216 119.944 74.9767 119.944 78.038V106H113.056V80.006C113.056 77.3273 112.728 75.086 112.072 73.282C111.471 71.4233 110.487 70.0293 109.12 69.1C107.753 68.116 105.977 67.624 103.79 67.624C100.455 67.624 97.6946 68.69 95.508 70.822C93.376 72.8993 92.31 75.9607 92.31 80.006V106H85.422ZM131.428 115.02H125.278C128.722 109.116 131.319 103.239 133.068 97.39C134.818 91.486 135.692 85.6093 135.692 79.76C135.692 68.0613 132.221 56.308 125.278 44.5H131.428C139.027 55.8707 142.826 67.624 142.826 79.76C142.826 91.8413 139.027 103.595 131.428 115.02Z" fill="black"/>
<path d="M25.04 60.32C25.6 57.2 26.5 54.42 27.74 51.98C29.02 49.5 30.84 47.56 33.2 46.16C35.56 44.72 38.64 44 42.44 44C44.8 44 46.78 44.22 48.38 44.66C50.02 45.06 51.08 45.36 51.56 45.56L48.56 54.68C47.48 54.24 46.42 53.96 45.38 53.84C44.38 53.68 43.48 53.6 42.68 53.6C40.92 53.6 39.56 54.04 38.6 54.92C37.68 55.8 36.94 57.3 36.38 59.42C35.86 61.5 35.28 64.36 34.64 68L23 134H12.08L25.04 60.32ZM12.32 83.6L14.96 75.2H46.88L45.32 83.6H12.32Z" fill="black"/>
</svg>
